PathFileType	4	(X/Y/Z)	/Users/itak/Documents/Research/Walk-IL/dataset/trc/00391_00012.trc
DataRate	CameraRate	NumFrames	NumMarkers	Units	OrigDataRate	OrigDataStartFrame	OrigNumFrames
100.000000	100.000000	4	55	mm	100.000000	412	550
Frame#	Time	RPSI			LPSI			L3			STRN			T10			C7			CLAV			RBAK			LBAK			LSHO			LUPA			LAEL			LAOL			LWTS			LWPS			LFRA			LHPS			LHTS			RSHO			RUPA			RAEL			RWTS			RWPS			RFRA			RIFD			RHTS			RHPS			RBHD			LFHD			RFHD			LBHD			LHIP			RHIP			RASI			LASI			LKNE			LTHI			LANK			LTIP			LTOE			LMT1			LMT5			LHEE			RKNE			RTHI			RANK			RTIP			RTOE			RMT1			RMT5			RHEE			LIFD			RAOL			*53			*54			
		X1	Y1	Z1	X2	Y2	Z2	X3	Y3	Z3	X4	Y4	Z4	X5	Y5	Z5	X6	Y6	Z6	X7	Y7	Z7	X8	Y8	Z8	X9	Y9	Z9	X10	Y10	Z10	X11	Y11	Z11	X12	Y12	Z12	X13	Y13	Z13	X14	Y14	Z14	X15	Y15	Z15	X16	Y16	Z16	X17	Y17	Z17	X18	Y18	Z18	X19	Y19	Z19	X20	Y20	Z20	X21	Y21	Z21	X22	Y22	Z22	X23	Y23	Z23	X24	Y24	Z24	X25	Y25	Z25	X26	Y26	Z26	X27	Y27	Z27	X28	Y28	Z28	X29	Y29	Z29	X30	Y30	Z30	X31	Y31	Z31	X32	Y32	Z32	X33	Y33	Z33	X34	Y34	Z34	X35	Y35	Z35	X36	Y36	Z36	X37	Y37	Z37	X38	Y38	Z38	X39	Y39	Z39	X40	Y40	Z40	X41	Y41	Z41	X42	Y42	Z42	X43	Y43	Z43	X44	Y44	Z44	X45	Y45	Z45	X46	Y46	Z46	X47	Y47	Z47	X48	Y48	Z48	X49	Y49	Z49	X50	Y50	Z50	X51	Y51	Z51	X52	Y52	Z52	X53	Y53	Z53	X54	Y54	Z54	X55	Y55	Z55	

413	4.12	-1219.564819335938	947.427734375	9.492264747619629	-1227.824951171875	938.45166015625	-123.2896499633789	-1205.4140625	1024.154541015625	-44.49306106567383	-963.5656127929688	1164.170288085938	-61.37238693237305	-1207.91015625	1126.350830078125	-44.29736709594727	-1162.542846679688	1374.093139648438	-53.48974227905273	-1013.054138183594	1286.078491210938	-61.5899772644043	-1204.803344726562	1229.452270507812	18.9725284576416	-1187.140991210938	1338.892822265625	-155.7696838378906	-1104.095581054688	1348.537963867188	-216.4020080566406	-1164.501953125	1239.875	-271.3761291503906	-1218.223876953125	1055.483642578125	-291.0218200683594	-1243.912719726562	1039.98291015625	-210.8298645019531	-1196.508422851562	818.3292846679688	-290.5659790039062	-1274.668334960938	829.6245727539062	-314.3766174316406	-1244.433349609375	952.126220703125	-302.8763122558594	-1286.083129882812	744.1044311523438	-311.6852111816406	-1223.475952148438	725.4039916992188	-314.2715454101562	-1092.426879882812	1352.785400390625	98.1953125	-1099.740356445312	1289.057006835938	161.3605346679688	-1070.00634765625	1031.464233398438	217.1158599853516	-898.3274536132812	856.1895141601562	178.4690093994141	-930.5718383789062	837.2210693359375	244.3297424316406	-1030.932250976562	973.04833984375	230.7555389404297	-849.0924072265625	690.8919067382812	183.4729614257812	-849.880126953125	762.1982421875	198.5109710693359	-899.8150634765625	751.392578125	243.5283813476562	-1109.79150390625	1555.636962890625	30.07437515258789	-1000.902465820312	1562.980102539062	-137.4505157470703	-985.2081298828125	1570.419311523438	-15.98199653625488	-1147.713134765625	1543.27001953125	-127.2682495117188	-1139.70703125	936.3375244140625	-237.5240478515625	-1138.605834960938	914.5819702148438	124.2126007080078	-1005.139465332031	914.5355224609375	69.10569763183594	-1026.694580078125	927.8636474609375	-190.5816192626953	-922.1195678710938	478.3530883789062	-211.2347717285156	-988.4039306640625	602.89794921875	-228.5492248535156	-879.7455444335938	32.75281524658203	-153.0823211669922	-899.49951171875	242.1675720214844	-193.0279693603516	-678.1224975585938	96.7650146484375	-119.2250061035156	-745.63623046875	77.02498626708984	-74.75453948974609	-754.4866333007812	52.72542190551758	-175.7080383300781	-912.1182250976562	30.73075485229492	-91.03221893310547	-1166.408935546875	425.373291015625	69.64901733398438	-1089.0771484375	678.1723022460938	105.3375778198242	-1453.048217773438	102.1524047851562	60.05181121826172	-1225.709106445312	309.2838134765625	57.84004974365234	-1312.553955078125	41.77468490600586	-26.94139099121094	-1379.012329101562	58.86130523681641	-47.32518005371094	-1382.83154296875	54.31277847290039	54.59883880615234	-1529.501220703125	132.0135498046875	16.68451499938965	-1256.704956054688	651.2875366210938	-282.8908996582031	-1103.923950195312	1011.170959472656	127.5817413330078	nan	nan	nan	nan	nan	nan	
414	4.13	-1232.4697265625	947.2333374023438	9.450527191162109	-1239.707153320312	937.525634765625	-123.2033920288086	-1217.702758789062	1023.818359375	-44.51224899291992	-974.1616821289062	1162.7265625	-59.31275939941406	-1219.442504882812	1126.294189453125	-44.33181762695312	-1172.37255859375	1373.562133789062	-52.68613052368164	-1023.5166015625	1284.74951171875	-60.03641510009766	-1215.5537109375	1229.103759765625	19.53158760070801	-1196.4697265625	1338.32666015625	-155.2569580078125	-1112.91796875	1347.759399414062	-215.3703460693359	-1172.6484375	1238.763427734375	-271.0579223632812	-1225.305908203125	1053.996337890625	-290.8622741699219	-1252.468383789062	1038.81103515625	-211.171630859375	-1202.468017578125	816.9373168945312	-289.2312927246094	-1280.5234375	827.9142456054688	-314.1802673339844	-1250.937744140625	950.4578247070312	-302.6478271484375	-1291.824829101562	742.3792114257812	-311.3123474121094	-1229.057373046875	723.8109130859375	-312.6761779785156	-1102.85498046875	1351.968017578125	99.39376068115234	-1110.322265625	1288.262817382812	162.6117401123047	-1079.909912109375	1030.583374023438	218.4239959716797	-907.873779296875	855.8296508789062	177.9314270019531	-939.2733154296875	836.5810546875	243.8521881103516	-1040.59130859375	972.11962890625	231.6241302490234	-858.3741455078125	690.5830688476562	181.7915954589844	-859.1735229492188	761.7789916992188	197.1157836914062	-908.3985595703125	750.7318725585938	242.4096069335938	-1118.360229492188	1554.787719726562	31.23996543884277	-1010.125305175781	1561.748779296875	-136.7689971923828	-993.865234375	1569.00927734375	-15.43570709228516	-1156.962768554688	1542.650512695312	-125.9514083862305	-1150.659790039062	934.7411499023438	-236.515625	-1152.472900390625	914.6370849609375	124.9485092163086	-1018.071411132812	914.0747680664062	71.25946807861328	-1038.049926757812	926.279296875	-188.7918395996094	-933.020751953125	477.8430480957031	-210.4707336425781	-999.4778442382812	602.427978515625	-227.3800201416016	-881.9458618164062	32.28337097167969	-152.8996124267578	-906.6881103515625	242.0446014404297	-192.7826080322266	-681.6800537109375	101.7915954589844	-122.9892807006836	-747.8280639648438	80.59862518310547	-77.11367797851562	-757.8427124023438	55.11238098144531	-177.8067016601562	-913.1666259765625	29.32732772827148	-90.46046447753906	-1178.528442382812	424.982177734375	71.92161560058594	-1102.614624023438	678.549560546875	107.9342498779297	-1458.793212890625	97.83915710449219	58.54108810424805	-1235.5322265625	307.7766418457031	58.96282196044922	-1312.296997070312	41.82007598876953	-26.54298782348633	-1381.19580078125	57.95298385620117	-47.92037963867188	-1385.92041015625	54.11252975463867	53.85228729248047	-1536.19775390625	124.3942337036133	14.48610973358154	-1262.7744140625	649.7788696289062	-281.522216796875	-1114.365112304688	1010.269958496094	129.0568389892578	nan	nan	nan	nan	nan	nan	
415	4.14	-1244.9931640625	947.2639770507812	9.459988594055176	-1251.3193359375	936.8170166015625	-123.0535659790039	-1229.936157226562	1023.640686035156	-44.5522346496582	-984.615234375	1161.620727539062	-57.37961578369141	-1230.950073242188	1126.412719726562	-44.53779602050781	-1182.1875	1373.173461914062	-51.95153045654297	-1033.921142578125	1283.7265625	-58.55083847045898	-1226.234375	1228.890502929688	20.03329849243164	-1205.757568359375	1337.947021484375	-154.7924499511719	-1121.701782226562	1347.25048828125	-214.3693695068359	-1180.6884765625	1237.950927734375	-270.8287658691406	-1232.019775390625	1052.7255859375	-290.8866577148438	-1260.8037109375	1037.855224609375	-211.7910614013672	-1207.925048828125	815.7316284179688	-287.9557495117188	-1285.771484375	826.3980712890625	-314.2796936035156	-1256.967163085938	948.9962158203125	-302.6600341796875	-1296.968383789062	740.8218383789062	-311.12939453125	-1234.1044921875	722.3801879882812	-310.9984741210938	-1113.327514648438	1351.320068359375	100.5213241577148	-1120.98388671875	1287.652221679688	163.7579650878906	-1089.937622070312	1029.910278320312	219.6443786621094	-917.6062622070312	855.5558471679688	177.4523468017578	-948.1609497070312	836.0161743164062	243.3507995605469	-1050.365966796875	971.3973388671875	232.4425811767578	-868.1088256835938	690.2933349609375	180.1108856201172	-868.8104858398438	761.36181640625	195.7642517089844	-917.4127197265625	750.1431274414062	241.3287048339844	-1126.8857421875	1554.133178710938	32.34823989868164	-1019.252502441406	1560.658569335938	-136.1009063720703	-1002.44970703125	1567.736572265625	-14.89760684967041	-1166.113159179688	1542.24609375	-124.6853408813477	-1161.3720703125	933.4255981445312	-235.4637451171875	-1165.942749023438	915.0196533203125	125.6604843139648	-1030.698120117188	913.9601440429688	73.32275390625	-1049.202270507812	924.95556640625	-187.0449981689453	-944.0886840820312	477.3336181640625	-209.6678771972656	-1010.687744140625	602.0018310546875	-226.1342926025391	-884.7869262695312	31.87722206115723	-152.5773010253906	-914.3141479492188	241.9457092285156	-192.4563140869141	-685.8164672851562	106.6440277099609	-126.8416290283203	-750.5808715820312	84.12517547607422	-79.52895355224609	-761.9707641601562	57.54695892333984	-179.9365386962891	-914.7232666015625	27.90012168884277	-89.74014282226562	-1189.88134765625	424.7305603027344	74.17488861083984	-1115.720825195312	679.1615600585938	110.5330657958984	-1463.624145507812	93.69869232177734	57.22699737548828	-1244.490844726562	306.4310302734375	60.11715316772461	-1312.1552734375	41.85603332519531	-26.16550064086914	-1382.991333007812	56.92844772338867	-48.3679313659668	-1388.558959960938	53.91188049316406	53.21301651000977	-1541.799072265625	117.0342712402344	12.53866004943848	-1268.397094726562	648.4935913085938	-280.0496215820312	-1124.881591796875	1009.592895507812	130.4502563476562	nan	nan	nan	nan	nan	nan	
416	4.15	-1257.057373046875	947.47607421875	9.583315849304199	-1262.610107421875	936.3333129882812	-122.794563293457	-1241.983154296875	1023.567138671875	-44.53522491455078	-994.9169921875	1160.83837890625	-55.58869552612305	-1242.386840820312	1126.65380859375	-44.84908294677734	-1191.97265625	1372.911010742188	-51.30109786987305	-1044.207397460938	1283.008666992188	-57.14571762084961	-1236.818237304688	1228.789306640625	20.48484420776367	-1214.988525390625	1337.725708007812	-154.3802642822266	-1130.442749023438	1346.988159179688	-213.4142303466797	-1188.634643554688	1237.422729492188	-270.6849365234375	-1238.417358398438	1051.669799804688	-291.0798645019531	-1268.90087890625	1037.097290039062	-212.6513977050781	-1213.014892578125	814.7235107421875	-286.6466369628906	-1290.44091796875	825.0709228515625	-314.6747741699219	-1262.569458007812	947.7412109375	-302.9005432128906	-1301.521240234375	739.4169311523438	-311.1352233886719	-1238.642822265625	721.1129760742188	-309.2604370117188	-1123.81787109375	1350.838134765625	101.5653991699219	-1131.704467773438	1287.211303710938	164.7819213867188	-1100.065551757812	1029.434326171875	220.7619018554688	-927.4939575195312	855.3702392578125	177.0324401855469	-957.2399291992188	835.538818359375	242.8520202636719	-1060.247314453125	970.8827514648438	233.1956024169922	-878.29736328125	690.007568359375	178.4510955810547	-878.7454223632812	760.9525756835938	194.4661865234375	-926.8329467773438	749.6314086914062	240.3094635009766	-1135.376708984375	1553.663452148438	33.39254379272461	-1028.2822265625	1559.714721679688	-135.4499359130859	-1010.970397949219	1566.61376953125	-14.35758018493652	-1175.16845703125	1542.052368164062	-123.48388671875	-1171.865356445312	932.4022827148438	-234.3665924072266	-1178.910034179688	915.6300659179688	126.3950042724609	-1042.950317382812	914.1162109375	75.29255676269531	-1060.111938476562	923.9031982421875	-185.3365936279297	-955.1746826171875	476.8806457519531	-208.8380889892578	-1021.932861328125	601.6348876953125	-224.8113403320312	-888.4459838867188	31.56774139404297	-152.0910491943359	-922.3369140625	241.8933258056641	-192.0355987548828	-690.6140747070312	111.0718612670898	-130.6528625488281	-754.0294799804688	87.43192291259766	-81.89882659912109	-766.9799194335938	59.86165237426758	-181.9784240722656	-916.99560546875	26.54964256286621	-88.84770202636719	-1200.49560546875	424.5809326171875	76.21887969970703	-1128.340698242188	679.8859252929688	113.022216796875	-1467.668579101562	89.72032165527344	56.07130432128906	-1252.678100585938	305.2453308105469	61.13778305053711	-1312.170654296875	41.90779876708984	-25.81569671630859	-1384.485717773438	55.77313232421875	-48.71526718139648	-1390.8115234375	53.67368316650391	52.64145278930664	-1546.459594726562	109.9383010864258	10.82103729248047	-1273.52587890625	647.4246826171875	-278.5007629394531	-1135.469604492188	1009.126953125	131.7425842285156	nan	nan	nan	nan	nan	nan	
